<svg width="55" height="30" viewBox="0 0 55 30" fill="none" xmlns="http://www.w3.org/2000/svg">
<path d="M37.318 14L37.304 7.504L34.084 12.88H33.272L30.052 7.588V14H28.316V4.2H29.814L33.706 10.696L37.528 4.2H39.026L39.04 14H37.318ZM50.3951 4.2V14H48.5751V9.8H43.5071V14H41.6871V4.2H43.5071V8.246H48.5751V4.2H50.3951Z" fill="white"/>
<path d="M24.9625 21.5C25.6313 19.9687 26 18.275 26 16.5C26 9.59375 20.4063 4 13.5 4C6.59375 4 1 9.59375 1 16.5H13.5L13.5063 21.5C13.5063 23.9187 15.4625 25.875 17.8813 25.875C20.3 25.875 22.2563 23.9187 22.2563 21.5H24.9625Z" stroke="#FFB612" stroke-miterlimit="2" stroke-linecap="round" stroke-linejoin="round"/>
<path d="M17.6668 22.75C18.2779 22.75 18.7779 22.1875 18.7779 21.5C18.7779 20.8125 18.2779 20.25 17.6668 20.25C17.0557 20.25 16.5557 20.8125 16.5557 21.5C16.5557 22.1875 17.0557 22.75 17.6668 22.75Z" fill="#FFB612"/>
<path d="M13.5 21.5L2.25 24C3.64375 25.9813 5.03125 27.9813 7.25 29L14.75 24.625" stroke="#FFB612" stroke-miterlimit="2" stroke-linecap="round" stroke-linejoin="round"/>
</svg>
